STARTFONT 2.1
COMMENT
COMMENT Converted from OpenType font "8-BITWONDER.TTF" by "otf2bdf 3.0".
COMMENT
FONT -FreeType-8BIT WONDER-Medium-R-Normal--8-60-100-100-P-73-ISO10646-1
SIZE 6 100 100
FONTBOUNDINGBOX 12 8 -1 0
STARTPROPERTIES 19
FOUNDRY "FreeType"
FAMILY_NAME "8BIT WONDER"
WEIGHT_NAME "Medium"
SLANT "R"
SETWIDTH_NAME "Normal"
ADD_STYLE_NAME ""
PIXEL_SIZE 8
POINT_SIZE 60
RESOLUTION_X 100
RESOLUTION_Y 100
SPACING "P"
AVERAGE_WIDTH 73
CHARSET_REGISTRY "ISO10646"
CHARSET_ENCODING "1"
FONT_ASCENT 8
FONT_DESCENT 0
COPYRIGHT "©2001 Joiro Hatgaya | Freeware, but look at readme file. | JOIRO@HOTMAIL.COM"
_OTF_FONTFILE "8-BITWONDER.TTF"
_OTF_PSNAME "8BITWONDERNominal"
ENDPROPERTIES
CHARS 69
STARTCHAR 0020
ENCODING 32
SWIDTH 480 0
DWIDTH 4 0
BBX 0 0 0 0
BITMAP
ENDCHAR
STARTCHAR 0023
ENCODING 35
SWIDTH 960 0
DWIDTH 8 0
BBX 8 8 0 0
BITMAP
FF
81
81
81
81
81
81
FF
ENDCHAR
STARTCHAR 0028
ENCODING 40
SWIDTH 480 0
DWIDTH 4 0
BBX 4 7 0 0
BITMAP
70
E0
E0
E0
E0
E0
70
ENDCHAR
STARTCHAR 0029
ENCODING 41
SWIDTH 480 0
DWIDTH 4 0
BBX 4 7 0 0
BITMAP
E0
70
70
70
70
70
E0
ENDCHAR
STARTCHAR 002A
ENCODING 42
SWIDTH 960 0
DWIDTH 8 0
BBX 7 7 0 0
BITMAP
82
00
68
10
28
08
82
ENDCHAR
STARTCHAR 0030
ENCODING 48
SWIDTH 960 0
DWIDTH 8 0
BBX 7 7 0 0
BITMAP
7C
EE
EE
FE
EE
EE
7C
ENDCHAR
STARTCHAR 0031
ENCODING 49
SWIDTH 480 0
DWIDTH 4 0
BBX 4 7 -1 0
BITMAP
E0
70
70
70
70
70
70
ENDCHAR
STARTCHAR 0032
ENCODING 50
SWIDTH 960 0
DWIDTH 8 0
BBX 7 7 0 0
BITMAP
FC
0E
0E
7E
E0
E0
FE
ENDCHAR
STARTCHAR 0033
ENCODING 51
SWIDTH 960 0
DWIDTH 8 0
BBX 7 7 0 0
BITMAP
FC
0E
0E
3C
0E
0E
FC
ENDCHAR
STARTCHAR 0034
ENCODING 52
SWIDTH 960 0
DWIDTH 8 0
BBX 7 7 0 0
BITMAP
EE
EE
EE
FE
0E
0E
0E
ENDCHAR
STARTCHAR 0035
ENCODING 53
SWIDTH 960 0
DWIDTH 8 0
BBX 7 7 0 0
BITMAP
FE
E0
E0
FC
0E
0E
FC
ENDCHAR
STARTCHAR 0036
ENCODING 54
SWIDTH 960 0
DWIDTH 8 0
BBX 7 7 0 0
BITMAP
7E
E0
E0
FC
EE
EE
7C
ENDCHAR
STARTCHAR 0037
ENCODING 55
SWIDTH 960 0
DWIDTH 8 0
BBX 7 7 0 0
BITMAP
FC
0E
0E
0E
0E
0E
0E
ENDCHAR
STARTCHAR 0038
ENCODING 56
SWIDTH 960 0
DWIDTH 8 0
BBX 7 7 0 0
BITMAP
7C
EE
EE
7C
EE
EE
7C
ENDCHAR
STARTCHAR 0039
ENCODING 57
SWIDTH 960 0
DWIDTH 8 0
BBX 7 7 0 0
BITMAP
7C
EE
EE
FE
0E
0E
FC
ENDCHAR
STARTCHAR 0041
ENCODING 65
SWIDTH 960 0
DWIDTH 8 0
BBX 7 7 0 0
BITMAP
7C
EE
EE
FE
EE
EE
EE
ENDCHAR
STARTCHAR 0042
ENCODING 66
SWIDTH 960 0
DWIDTH 8 0
BBX 7 7 0 0
BITMAP
FC
EE
EE
FC
EE
EE
FC
ENDCHAR
STARTCHAR 0043
ENCODING 67
SWIDTH 960 0
DWIDTH 8 0
BBX 7 7 0 0
BITMAP
7E
E0
E0
E0
E0
E0
7E
ENDCHAR
STARTCHAR 0044
ENCODING 68
SWIDTH 960 0
DWIDTH 8 0
BBX 7 7 0 0
BITMAP
FC
EE
EE
EE
EE
EE
FC
ENDCHAR
STARTCHAR 0045
ENCODING 69
SWIDTH 960 0
DWIDTH 8 0
BBX 7 7 0 0
BITMAP
7E
E0
E0
F8
E0
E0
7E
ENDCHAR
STARTCHAR 0046
ENCODING 70
SWIDTH 960 0
DWIDTH 8 0
BBX 7 7 0 0
BITMAP
7E
E0
E0
F8
E0
E0
E0
ENDCHAR
STARTCHAR 0047
ENCODING 71
SWIDTH 960 0
DWIDTH 8 0
BBX 7 7 0 0
BITMAP
7E
E0
E0
FE
EE
EE
7E
ENDCHAR
STARTCHAR 0048
ENCODING 72
SWIDTH 960 0
DWIDTH 8 0
BBX 7 7 0 0
BITMAP
EE
EE
EE
FE
EE
EE
EE
ENDCHAR
STARTCHAR 0049
ENCODING 73
SWIDTH 480 0
DWIDTH 4 0
BBX 3 7 0 0
BITMAP
E0
E0
E0
E0
E0
E0
E0
ENDCHAR
STARTCHAR 004A
ENCODING 74
SWIDTH 960 0
DWIDTH 8 0
BBX 7 7 0 0
BITMAP
0E
0E
0E
0E
0E
0E
FC
ENDCHAR
STARTCHAR 004B
ENCODING 75
SWIDTH 960 0
DWIDTH 8 0
BBX 7 7 0 0
BITMAP
EE
EE
EE
FC
EE
EE
EE
ENDCHAR
STARTCHAR 004C
ENCODING 76
SWIDTH 960 0
DWIDTH 8 0
BBX 7 7 0 0
BITMAP
E0
E0
E0
E0
E0
E0
FE
ENDCHAR
STARTCHAR 004D
ENCODING 77
SWIDTH 1560 0
DWIDTH 13 0
BBX 11 7 0 0
BITMAP
FFC0
EEE0
EEE0
EEE0
EEE0
EEE0
EEE0
ENDCHAR
STARTCHAR 004E
ENCODING 78
SWIDTH 960 0
DWIDTH 8 0
BBX 7 7 0 0
BITMAP
FC
EE
EE
EE
EE
EE
EE
ENDCHAR
STARTCHAR 004F
ENCODING 79
SWIDTH 960 0
DWIDTH 8 0
BBX 7 7 0 0
BITMAP
7C
EE
EE
EE
EE
EE
7C
ENDCHAR
STARTCHAR 0050
ENCODING 80
SWIDTH 960 0
DWIDTH 8 0
BBX 7 7 0 0
BITMAP
FC
EE
EE
FE
E0
E0
E0
ENDCHAR
STARTCHAR 0051
ENCODING 81
SWIDTH 960 0
DWIDTH 8 0
BBX 7 7 0 0
BITMAP
7C
EE
EE
EE
EE
EE
7C
ENDCHAR
STARTCHAR 0052
ENCODING 82
SWIDTH 960 0
DWIDTH 8 0
BBX 7 7 0 0
BITMAP
FC
EE
EE
FC
EE
EE
EE
ENDCHAR
STARTCHAR 0053
ENCODING 83
SWIDTH 960 0
DWIDTH 8 0
BBX 7 7 0 0
BITMAP
7E
E0
E0
FC
0E
0E
FC
ENDCHAR
STARTCHAR 0054
ENCODING 84
SWIDTH 960 0
DWIDTH 8 0
BBX 7 7 0 0
BITMAP
FE
38
38
38
38
38
38
ENDCHAR
STARTCHAR 0055
ENCODING 85
SWIDTH 960 0
DWIDTH 8 0
BBX 7 7 0 0
BITMAP
EE
EE
EE
EE
EE
EE
7C
ENDCHAR
STARTCHAR 0056
ENCODING 86
SWIDTH 960 0
DWIDTH 8 0
BBX 7 7 0 0
BITMAP
EE
EE
EE
EE
EE
EE
FC
ENDCHAR
STARTCHAR 0057
ENCODING 87
SWIDTH 1560 0
DWIDTH 13 0
BBX 11 7 0 0
BITMAP
EEE0
EEE0
EEE0
EEE0
EEE0
EEE0
FFC0
ENDCHAR
STARTCHAR 0058
ENCODING 88
SWIDTH 960 0
DWIDTH 8 0
BBX 7 7 0 0
BITMAP
EE
EE
EE
7C
EE
EE
EE
ENDCHAR
STARTCHAR 0059
ENCODING 89
SWIDTH 960 0
DWIDTH 8 0
BBX 7 7 0 0
BITMAP
EE
EE
EE
FE
38
38
38
ENDCHAR
STARTCHAR 005A
ENCODING 90
SWIDTH 960 0
DWIDTH 8 0
BBX 7 7 0 0
BITMAP
FE
0E
0E
7E
E0
E0
FE
ENDCHAR
STARTCHAR 005B
ENCODING 91
SWIDTH 480 0
DWIDTH 4 0
BBX 4 7 0 0
BITMAP
F0
E0
E0
E0
E0
E0
F0
ENDCHAR
STARTCHAR 005D
ENCODING 93
SWIDTH 480 0
DWIDTH 4 0
BBX 4 7 0 0
BITMAP
F0
70
70
70
70
70
F0
ENDCHAR
STARTCHAR 0061
ENCODING 97
SWIDTH 960 0
DWIDTH 8 0
BBX 7 7 0 0
BITMAP
7C
EE
EE
FE
EE
EE
EE
ENDCHAR
STARTCHAR 0062
ENCODING 98
SWIDTH 960 0
DWIDTH 8 0
BBX 7 7 0 0
BITMAP
FC
EE
EE
FC
EE
EE
FC
ENDCHAR
STARTCHAR 0063
ENCODING 99
SWIDTH 960 0
DWIDTH 8 0
BBX 7 7 0 0
BITMAP
7E
E0
E0
E0
E0
E0
7E
ENDCHAR
STARTCHAR 0064
ENCODING 100
SWIDTH 960 0
DWIDTH 8 0
BBX 7 7 0 0
BITMAP
FC
EE
EE
EE
EE
EE
FC
ENDCHAR
STARTCHAR 0065
ENCODING 101
SWIDTH 960 0
DWIDTH 8 0
BBX 7 7 0 0
BITMAP
7E
E0
E0
F8
E0
E0
7E
ENDCHAR
STARTCHAR 0066
ENCODING 102
SWIDTH 960 0
DWIDTH 8 0
BBX 7 7 0 0
BITMAP
7E
E0
E0
F8
E0
E0
E0
ENDCHAR
STARTCHAR 0067
ENCODING 103
SWIDTH 960 0
DWIDTH 8 0
BBX 7 7 0 0
BITMAP
7E
E0
E0
FE
EE
EE
7E
ENDCHAR
STARTCHAR 0068
ENCODING 104
SWIDTH 960 0
DWIDTH 8 0
BBX 7 7 0 0
BITMAP
EE
EE
EE
FE
EE
EE
EE
ENDCHAR
STARTCHAR 0069
ENCODING 105
SWIDTH 480 0
DWIDTH 4 0
BBX 3 7 0 0
BITMAP
E0
E0
E0
E0
E0
E0
E0
ENDCHAR
STARTCHAR 006A
ENCODING 106
SWIDTH 960 0
DWIDTH 8 0
BBX 7 7 0 0
BITMAP
0E
0E
0E
0E
0E
0E
FC
ENDCHAR
STARTCHAR 006B
ENCODING 107
SWIDTH 960 0
DWIDTH 8 0
BBX 7 7 0 0
BITMAP
EE
EE
EE
FC
EE
EE
EE
ENDCHAR
STARTCHAR 006C
ENCODING 108
SWIDTH 960 0
DWIDTH 8 0
BBX 7 7 0 0
BITMAP
E0
E0
E0
E0
E0
E0
FE
ENDCHAR
STARTCHAR 006D
ENCODING 109
SWIDTH 1560 0
DWIDTH 13 0
BBX 11 7 0 0
BITMAP
FFC0
EEE0
EEE0
EEE0
EEE0
EEE0
EEE0
ENDCHAR
STARTCHAR 006E
ENCODING 110
SWIDTH 960 0
DWIDTH 8 0
BBX 7 7 0 0
BITMAP
FC
EE
EE
EE
EE
EE
EE
ENDCHAR
STARTCHAR 006F
ENCODING 111
SWIDTH 960 0
DWIDTH 8 0
BBX 7 7 0 0
BITMAP
7C
EE
EE
EE
EE
EE
7C
ENDCHAR
STARTCHAR 0070
ENCODING 112
SWIDTH 960 0
DWIDTH 8 0
BBX 7 7 0 0
BITMAP
FC
EE
EE
FC
E0
E0
E0
ENDCHAR
STARTCHAR 0071
ENCODING 113
SWIDTH 960 0
DWIDTH 8 0
BBX 7 7 0 0
BITMAP
7C
EE
EE
EE
EE
EE
7C
ENDCHAR
STARTCHAR 0072
ENCODING 114
SWIDTH 960 0
DWIDTH 8 0
BBX 7 7 0 0
BITMAP
FC
EE
EE
FC
EE
EE
EE
ENDCHAR
STARTCHAR 0073
ENCODING 115
SWIDTH 960 0
DWIDTH 8 0
BBX 7 7 0 0
BITMAP
7E
E0
E0
FE
0E
0E
FC
ENDCHAR
STARTCHAR 0074
ENCODING 116
SWIDTH 960 0
DWIDTH 8 0
BBX 7 7 0 0
BITMAP
FE
38
38
38
38
38
38
ENDCHAR
STARTCHAR 0075
ENCODING 117
SWIDTH 960 0
DWIDTH 8 0
BBX 7 7 0 0
BITMAP
EE
EE
EE
EE
EE
EE
7C
ENDCHAR
STARTCHAR 0076
ENCODING 118
SWIDTH 960 0
DWIDTH 8 0
BBX 7 7 0 0
BITMAP
EE
EE
EE
EE
EE
EE
FC
ENDCHAR
STARTCHAR 0077
ENCODING 119
SWIDTH 1560 0
DWIDTH 13 0
BBX 11 7 0 0
BITMAP
EEE0
EEE0
EEE0
EEE0
EEE0
EEE0
FFC0
ENDCHAR
STARTCHAR 0078
ENCODING 120
SWIDTH 960 0
DWIDTH 8 0
BBX 7 7 0 0
BITMAP
EE
EE
EE
7C
EE
EE
EE
ENDCHAR
STARTCHAR 0079
ENCODING 121
SWIDTH 960 0
DWIDTH 8 0
BBX 7 7 0 0
BITMAP
EE
EE
EE
FC
38
38
38
ENDCHAR
STARTCHAR 007A
ENCODING 122
SWIDTH 960 0
DWIDTH 8 0
BBX 7 7 0 0
BITMAP
FE
0E
0E
7C
E0
E0
FE
ENDCHAR
ENDFONT
